# xmcd
#
# Track frame offsets: 
#        150
#        16685
#        33087
#        56495
#        76790
#        94322
#        111292
#        131430
#        139405
#        150302
#        158675
#        172367
#        181177
#        193410
#        212767
#        228360
#        247215
#        256200
#        273842
#        294660
#        315517
#
# Disc length: 4668 seconds
#
# Revision: 1
# Processed by: cddbd v1.5.2PL0 Copyright (c) Steve Scherf et al.
# Submitted via: ExactAudioCopyFreeDBPlugin 1.0
#
DISCID=22123a15
DTITLE=Various Artist - FURA mania
DYEAR=1999
DGENRE=Club
TTITLE0=JULIET ROBERTS - BAD GIRLS
TTITLE1=LOUISE - LET'S GO ROUND AGAIN
TTITLE2=KATHY SLEDGE - ANOTHER STAR
TTITLE3=THE TYRREL CORPORATION - BETTER DAYS AHEAD(Satoshi's Club Mix)
TTITLE4=JOE T.VANNELLI PROJECT - SWEETEST DAY OF MAY
TTITLE5=HI-RISE - I BELIEVE IN MIRACLES(The Lisa Marie Experience Mix)
TTITLE6=N-TRANCE - STAYIN' ALIVE
TTITLE7=MONIE LOVE - IT'S A SHAME(MY SISTER)
TTITLE8=US 3 - CANTALOOP(FLIP FANTASIA)
TTITLE9=CHUMBAWAMBA - TUBTHUMPING
TTITLE10=BUS STOP - JUMP
TTITLE11=JOHN CREAMER - LIFT UP THE NEEDLE(Razor and Guido Redo It...Aga
TTITLE11=in)
TTITLE12=PERPETUAL MOTION - KEEP ON DANCIN'(LET'S GO)
TTITLE13=X-TREME - MY FIRE(UKS Remix)
TTITLE14=DAVID MORALES PRESENTS THE FACE - NEEDIN' U(Original Mistake)
TTITLE15=DIVA SURPRISE(feat.Georgia Jones) - ON THE TOP OF THE WORLD
TTITLE16=THE HEARTISTS - BELO HORIZONTI
TTITLE17=RAPPORT featuring ROCHELLE - TO LOVE YOU MORE
TTITLE18=JON SECADA - TOO LATE, TOO SOON(TM's Right On Time Mix)
TTITLE19=DJ MIKO - WHAT'S UP 2000
TTITLE20=GROW SOUND with BRENDA - WHY
EXTD=YEAR: 1999
EXTT0=
EXTT1=
EXTT2=
EXTT3=
EXTT4=
EXTT5=
EXTT6=
EXTT7=
EXTT8=
EXTT9=
EXTT10=
EXTT11=
EXTT12=
EXTT13=
EXTT14=
EXTT15=
EXTT16=
EXTT17=
EXTT18=
EXTT19=
EXTT20=
PLAYORDER=
